<svg version="1.1" id="Layer_1" xmlns="http://www.w3.org/2000/svg" xmlns:xlink="http://www.w3.org/1999/xlink" x="0px" y="0px"
	 width="420.969px" height="426.188px" viewBox="0 0 420.969 426.188" enable-background="new 0 0 420.969 426.188"
	 xml:space="preserve">
<path fill="#FF3366" d="M210.969,4.937c61.91,15.16,209.925,82.935,210,210c0.027,45.815-19.672,91.806-54,132
	c-19.813,23.2-83.824,89.116-156,77.999c-45.967-7.079-68.372-46.941-119-100.999c-44.7-47.728-85.215-71.548-91-109
	c-7.367-47.693,28.01-91.215,84.759-166.319c7.917-10.481,24.141-31.975,53.241-42.681C156.618-0.557,178.884-2.92,210.969,4.937z"
	/>
<g>
	<path fill="#FFFFFF" d="M210.531,186.869c14.29,0,25.876,11.587,25.876,25.877c0,14.293-11.586,25.89-25.876,25.89
		c-14.28,0-25.876-11.597-25.876-25.89C184.655,198.457,196.251,186.869,210.531,186.869z"/>
	<path fill="#FFFFFF" d="M340.329,186.973c-8.961-7.422-21.557-14.125-36.589-19.274c-3.013-1.036-6.091-2.07-9.291-2.89
		c0.526-2.165,1.025-4.335,1.432-6.396c7.229-34.838,2.069-61.953-13.292-70.815c-7.521-4.334-17.828-4.334-29.68,0
		c-10.929,4.015-22.995,11.645-34.95,22.055c-2.372,2.066-4.849,4.334-7.221,6.599c-1.646-1.544-3.19-2.989-4.848-4.434
		c-26.601-23.603-52.675-32.781-68.038-23.914c-7.521,4.33-12.688,13.292-14.844,25.773c-1.959,11.437-1.346,25.773,1.647,41.342
		c0.62,3.083,1.337,6.391,2.175,9.587c-3.719,1.021-7.334,2.165-10.723,3.398c-31.439,10.929-50.209,27.627-50.209,44.741
		c0,8.853,5.252,18.134,15.155,26.606c9.281,7.926,22.366,14.947,37.831,20.199c2.58,0.811,5.148,1.658,7.841,2.468
		c-0.828,3.501-1.656,6.908-2.278,10.316c-6.174,32.682-1.025,57.326,13.715,65.873c3.916,2.278,8.557,3.407,13.81,3.407
		c5.056,0,10.731-1.036,16.708-3.182c11.541-4.028,24.126-11.879,36.382-22.592c1.958-1.769,4.029-3.614,5.986-5.571
		c2.58,2.484,5.263,4.838,7.833,7.115c18.571,15.983,36.287,24.437,50.312,24.437c5.064,0,9.696-1.148,13.509-3.389
		c7.729-4.443,13.084-13.63,15.466-26.414c2.174-12.066,1.646-26.921-1.45-42.885c-0.518-2.58-1.026-5.159-1.742-7.72
		c1.846-0.526,3.588-1.148,5.366-1.656c33.793-11.126,54.728-29.161,54.728-46.91C355.183,204.085,350.015,195.115,340.329,186.973z
		 M257.127,99.243c8.255-2.989,15.061-3.295,19.287-0.923c8.246,4.734,14.109,24.841,7.314,57.622
		c-0.415,1.854-0.819,3.813-1.338,5.667c-12.066-2.781-25.047-4.843-38.754-6.076c-7.954-11.343-16.199-21.551-24.445-30.418
		c2.175-2.166,4.425-4.119,6.599-6.076C236.822,109.654,247.647,102.749,257.127,99.243z M250.942,236.339
		c-4.538,7.851-9.178,15.363-13.81,22.385c-8.557,0.621-17.434,0.941-26.498,0.941c-9.074,0-17.828-0.32-26.187-0.848
		c-4.942-7.19-9.687-14.721-14.12-22.365c-4.433-7.738-8.556-15.569-12.368-23.298c3.709-7.831,7.832-15.668,12.265-23.292l0,0
		c4.435-7.733,9.178-15.259,14.017-22.375c8.659-0.616,17.423-1.03,26.29-1.03c8.971,0,17.725,0.315,26.395,1.03
		c4.734,7.117,9.479,14.534,13.922,22.267c4.528,7.944,8.755,15.678,12.473,23.204C259.603,220.695,255.488,228.527,250.942,236.339
		z M270.013,227.172c3.926,8.885,7.126,17.318,9.696,25.471c-8.35,1.957-17.425,3.502-27.007,4.631
		c2.983-4.743,5.978-9.677,8.857-14.74C264.657,237.393,267.442,232.216,270.013,227.172z M211.049,292.536
		c-5.873-6.269-11.747-13.291-17.423-20.821c5.469,0.207,11.136,0.32,16.905,0.32c5.874,0,11.747-0.113,17.537-0.415
		C222.393,279.245,216.716,286.267,211.049,292.536z M168.681,257.387c-9.488-1.034-18.459-2.466-26.602-4.349
		c2.58-8.227,5.667-16.794,9.385-25.453c2.58,4.951,5.356,9.997,8.246,14.948C162.497,247.692,165.489,252.643,168.681,257.387z
		 M159.616,183.57c-2.898,4.956-5.572,10.001-8.255,14.953c-3.615-8.556-6.702-16.911-9.178-25.058
		c8.245-1.85,17.112-3.393,26.29-4.532C165.377,173.781,162.394,178.624,159.616,183.57z M210.738,133.982
		c5.667,6.189,11.344,12.995,17.01,20.521c-5.666-0.311-11.437-0.414-17.217-0.414c-5.676,0-11.343,0.103-16.905,0.414
		C199.188,147.076,204.969,140.171,210.738,133.982z M261.56,183.471c-2.88-4.956-5.779-9.798-8.745-14.435
		c9.16,1.134,18.036,2.678,26.376,4.636c-2.476,8.043-5.563,16.393-9.281,24.949C267.339,193.571,264.543,188.526,261.56,183.471z
		 M136.827,152.643c-2.795-14.016-3.305-26.803-1.553-36.8c1.449-8.66,4.631-14.741,8.867-17.221
		c8.246-4.739,28.559,0.202,53.617,22.474c1.43,1.238,2.88,2.579,4.32,4.02c-8.453,9.074-16.689,19.283-24.541,30.418
		c-13.602,1.233-26.601,3.295-38.649,5.978C138.061,158.521,137.438,155.632,136.827,152.643z M122.812,247.9
		c-30.631-10.412-44.543-25.567-44.543-35.154c0-9.169,12.99-22.992,41.963-33.087c3.191-1.144,6.495-2.17,9.884-3.097
		c3.615,11.855,8.359,24.125,14.13,36.593c-5.771,12.587-10.619,25.049-14.224,37.022
		C127.536,249.461,125.164,248.633,122.812,247.9z M151.973,329.247c-3.087,0-5.667-0.621-7.624-1.751
		c-7.945-4.536-13.404-22.686-7.729-52.789c0.611-3.087,1.337-6.306,2.061-9.6c11.748,2.579,24.842,4.556,38.971,5.685
		c8.039,11.239,16.389,21.65,24.832,30.724c-1.845,1.733-3.699,3.502-5.459,5.046C178.272,322.752,162.177,329.247,151.973,329.247z
		 M284.764,271.526c6.278,31.723,0.217,51.319-8.049,56.064c-7.926,4.65-26.385,0.32-49.578-19.692
		c-2.381-2.052-4.858-4.329-7.323-6.589c8.151-8.867,16.293-19.165,24.229-30.838c14.025-1.224,27.202-3.294,39.167-6.08
		C283.729,266.875,284.255,269.248,284.764,271.526z M296.605,247.9c-1.535,0.508-3.183,1.034-4.839,1.562
		c-3.605-11.56-8.557-23.834-14.628-36.612c5.771-12.472,10.515-24.639,14.109-36.189c3.003,0.828,5.885,1.755,8.661,2.683
		c13.508,4.641,24.85,10.623,32.682,17.113c6.702,5.568,10.411,11.338,10.411,16.29C342.898,222.333,328.374,237.393,296.605,247.9z
		"/>
</g>
</svg>
