<?xml version="1.0" standalone="no"?>
<!DOCTYPE svg PUBLIC "-//W3C//DTD SVG 20010904//EN"
 "http://www.w3.org/TR/2001/REC-SVG-20010904/DTD/svg10.dtd">
<svg version="1.0" xmlns="http://www.w3.org/2000/svg"
 width="512.000000pt" height="512.000000pt" viewBox="0 0 512.000000 512.000000"
 preserveAspectRatio="xMidYMid meet">
<g transform="translate(0.000000,512.000000) scale(0.100000,-0.100000)"
fill="#000000" stroke="none">
<path d="M1895 4990 c-231 -49 -430 -161 -609 -344 -80 -82 -526 -667 -713
-936 -246 -354 -375 -616 -419 -847 -25 -134 -16 -332 20 -438 64 -187 158
-309 477 -615 411 -394 573 -562 864 -895 154 -176 323 -362 375 -415 290
-292 522 -400 861 -400 164 0 272 17 439 70 635 200 1336 875 1625 1565 58
137 107 298 137 446 20 100 23 143 23 354 -1 210 -3 253 -23 345 -70 328 -226
644 -450 910 -327 389 -817 734 -1392 980 -257 110 -534 194 -736 225 -140 21
-366 19 -479 -5z m110 -975 c136 -35 334 -151 488 -287 l68 -60 56 49 c162
140 291 225 416 274 114 44 248 52 325 19 96 -41 167 -145 197 -287 28 -132
16 -391 -28 -606 -1 -4 44 -23 100 -42 196 -66 378 -171 476 -274 154 -161
151 -334 -9 -496 -105 -107 -256 -195 -454 -266 -83 -29 -105 -41 -104 -56 0
-10 9 -63 19 -118 26 -137 27 -393 2 -485 -39 -144 -102 -235 -192 -276 -99
-47 -262 -27 -414 50 -77 39 -220 139 -305 214 l-79 69 -81 -70 c-262 -226
-535 -331 -709 -271 -103 35 -181 143 -213 294 -22 104 -14 376 15 509 12 52
20 95 19 96 -2 1 -41 14 -88 29 -267 86 -499 248 -574 401 -41 83 -42 175 -4
258 71 152 271 292 558 391 57 20 105 38 107 40 2 1 -6 45 -18 97 -26 120 -37
392 -20 496 27 157 116 279 231 314 43 13 153 10 215 -6z"/>
<path d="M1830 3890 c-52 -12 -95 -66 -122 -152 -32 -100 -32 -323 0 -477 12
-57 24 -106 26 -109 3 -2 57 5 121 17 63 12 162 27 220 33 l105 12 84 111 c46
60 109 138 140 172 31 33 56 66 56 72 0 14 -126 121 -212 179 -167 113 -321
165 -418 142z"/>
<path d="M3143 3885 c-111 -30 -297 -144 -432 -264 l-55 -48 79 -94 c43 -52
107 -132 142 -179 l63 -86 110 -12 c61 -7 161 -22 222 -34 90 -17 112 -18 118
-7 16 24 41 184 47 296 12 222 -40 390 -133 429 -41 17 -93 17 -161 -1z"/>
<path d="M2525 3429 c-66 -72 -158 -189 -153 -195 3 -2 91 -3 197 -2 l191 3
-69 85 c-38 47 -82 100 -98 119 l-28 33 -40 -43z"/>
<path d="M2390 3093 c-52 -1 -105 -5 -117 -8 -26 -6 -153 -205 -254 -399 l-67
-130 40 -80 c61 -121 123 -229 200 -348 l70 -108 137 -1 c75 -1 208 -1 296 0
156 2 161 3 182 27 28 31 160 251 238 398 l58 108 -22 45 c-84 173 -272 479
-299 487 -25 7 -351 13 -462 9z m276 -260 c68 -23 145 -102 169 -172 25 -76
17 -183 -18 -242 -59 -101 -145 -151 -259 -151 -165 0 -289 128 -287 296 1 72
13 109 56 170 32 46 83 84 138 104 46 16 146 14 201 -5z"/>
<path d="M1927 3045 c-76 -14 -142 -27 -147 -30 -9 -6 38 -152 80 -249 l21
-50 64 117 c35 63 80 141 99 172 20 30 36 58 36 60 0 6 8 7 -153 -20z"/>
<path d="M3050 3060 c0 -4 33 -64 74 -132 40 -67 83 -143 96 -167 l22 -45 13
25 c25 49 96 252 92 264 -3 6 -63 21 -133 34 -71 12 -137 24 -146 26 -10 2
-18 -1 -18 -5z"/>
<path d="M1520 2941 c-234 -83 -407 -199 -464 -309 -64 -124 62 -285 321 -409
90 -43 224 -93 249 -93 7 0 25 37 40 83 15 45 51 140 81 212 l53 129 -44 106
c-25 58 -61 153 -81 213 -21 59 -40 107 -44 106 -3 0 -53 -17 -111 -38z"/>
<path d="M3485 2967 c-33 -93 -101 -269 -128 -332 l-35 -79 19 -38 c27 -53
102 -240 129 -320 l22 -66 87 29 c255 86 459 233 500 361 43 132 -162 309
-488 422 -73 26 -103 32 -106 23z"/>
<path d="M1860 2344 c-19 -44 -90 -241 -90 -249 0 -9 300 -58 308 -50 2 2 -5
16 -16 32 -11 15 -56 93 -101 172 l-80 144 -21 -49z"/>
<path d="M3158 2243 c-47 -82 -91 -158 -98 -170 -8 -12 -12 -24 -9 -27 5 -5
285 41 299 49 12 7 -90 295 -104 295 -2 0 -42 -66 -88 -147z"/>
<path d="M3305 1949 c-44 -10 -143 -26 -220 -35 l-140 -18 -98 -130 c-54 -72
-117 -153 -140 -180 l-42 -48 55 -51 c190 -175 423 -291 548 -272 156 23 219
296 151 650 -10 55 -19 101 -19 103 0 3 -3 2 -95 -19z"/>
<path d="M1722 1913 c-30 -142 -36 -190 -36 -323 -1 -124 2 -155 22 -217 48
-154 143 -193 321 -132 114 39 276 142 395 250 l48 44 -77 90 c-42 50 -107
129 -143 178 -69 92 -69 92 -172 102 -69 6 -291 41 -326 51 -19 5 -23 0 -32
-43z"/>
<path d="M2370 1873 c0 -9 142 -183 174 -212 23 -22 28 -23 39 -9 118 145 177
220 177 224 0 2 -88 4 -195 4 -107 0 -195 -3 -195 -7z"/>
</g>
</svg>
